<svg xmlns="http://www.w3.org/2000/svg" xmlns:xlink="http://www.w3.org/1999/xlink" width="1920" zoomAndPan="magnify" viewBox="0 0 1440 959.999988" height="1280" preserveAspectRatio="xMidYMid meet" version="1.0"><defs><clipPath id="4305ff2f11"><path d="M 191 318 L 193 318 L 193 319 L 191 319 Z M 191 318 " clip-rule="nonzero"/></clipPath><clipPath id="5bd970be57"><path d="M 70.78125 -138.28125 L 1000.441406 8.972656 L 873.488281 810.480469 L -56.171875 663.226562 Z M 70.78125 -138.28125 " clip-rule="nonzero"/></clipPath><clipPath id="5926bf2c9b"><path d="M 70.78125 -138.28125 L 1000.441406 8.972656 L 873.488281 810.480469 L -56.171875 663.226562 Z M 70.78125 -138.28125 " clip-rule="nonzero"/></clipPath><clipPath id="54ea56ee1d"><path d="M 617 350 L 619 350 L 619 352 L 617 352 Z M 617 350 " clip-rule="nonzero"/></clipPath><clipPath id="0c02cbf345"><path d="M 70.78125 -138.28125 L 1000.441406 8.972656 L 873.488281 810.480469 L -56.171875 663.226562 Z M 70.78125 -138.28125 " clip-rule="nonzero"/></clipPath><clipPath id="7a739716c8"><path d="M 70.78125 -138.28125 L 1000.441406 8.972656 L 873.488281 810.480469 L -56.171875 663.226562 Z M 70.78125 -138.28125 " clip-rule="nonzero"/></clipPath><clipPath id="e0159fc38b"><path d="M 686 340 L 687 340 L 687 341 L 686 341 Z M 686 340 " clip-rule="nonzero"/></clipPath><clipPath id="4a3b599945"><path d="M 70.78125 -138.28125 L 1000.441406 8.972656 L 873.488281 810.480469 L -56.171875 663.226562 Z M 70.78125 -138.28125 " clip-rule="nonzero"/></clipPath><clipPath id="0eec22eef3"><path d="M 70.78125 -138.28125 L 1000.441406 8.972656 L 873.488281 810.480469 L -56.171875 663.226562 Z M 70.78125 -138.28125 " clip-rule="nonzero"/></clipPath><clipPath id="3b4207dc40"><path d="M 474 288 L 476 288 L 476 290 L 474 290 Z M 474 288 " clip-rule="nonzero"/></clipPath><clipPath id="9148941343"><path d="M 70.78125 -138.28125 L 1000.441406 8.972656 L 873.488281 810.480469 L -56.171875 663.226562 Z M 70.78125 -138.28125 " clip-rule="nonzero"/></clipPath><clipPath id="2c56705dbf"><path d="M 70.78125 -138.28125 L 1000.441406 8.972656 L 873.488281 810.480469 L -56.171875 663.226562 Z M 70.78125 -138.28125 " clip-rule="nonzero"/></clipPath><clipPath id="a38a4d9184"><path d="M 90 419 L 92 419 L 92 420 L 90 420 Z M 90 419 " clip-rule="nonzero"/></clipPath><clipPath id="f60e50583a"><path d="M 70.78125 -138.28125 L 1000.441406 8.972656 L 873.488281 810.480469 L -56.171875 663.226562 Z M 70.78125 -138.28125 " clip-rule="nonzero"/></clipPath><clipPath id="4f8954de9f"><path d="M 70.78125 -138.28125 L 1000.441406 8.972656 L 873.488281 810.480469 L -56.171875 663.226562 Z M 70.78125 -138.28125 " clip-rule="nonzero"/></clipPath><clipPath id="e73afa812a"><path d="M 91 417 L 93 417 L 93 418 L 91 418 Z M 91 417 " clip-rule="nonzero"/></clipPath><clipPath id="17e777e466"><path d="M 70.78125 -138.28125 L 1000.441406 8.972656 L 873.488281 810.480469 L -56.171875 663.226562 Z M 70.78125 -138.28125 " clip-rule="nonzero"/></clipPath><clipPath id="1df79fc14e"><path d="M 70.78125 -138.28125 L 1000.441406 8.972656 L 873.488281 810.480469 L -56.171875 663.226562 Z M 70.78125 -138.28125 " clip-rule="nonzero"/></clipPath><clipPath id="d1c28f0585"><path d="M 91 414 L 96 414 L 96 420 L 91 420 Z M 91 414 " clip-rule="nonzero"/></clipPath><clipPath id="3921211e29"><path d="M 70.78125 -138.28125 L 1000.441406 8.972656 L 873.488281 810.480469 L -56.171875 663.226562 Z M 70.78125 -138.28125 " clip-rule="nonzero"/></clipPath><clipPath id="17e6396362"><path d="M 70.78125 -138.28125 L 1000.441406 8.972656 L 873.488281 810.480469 L -56.171875 663.226562 Z M 70.78125 -138.28125 " clip-rule="nonzero"/></clipPath><clipPath id="74618ce564"><path d="M 454 316 L 456 316 L 456 318 L 454 318 Z M 454 316 " clip-rule="nonzero"/></clipPath><clipPath id="4433001e80"><path d="M 70.78125 -138.28125 L 1000.441406 8.972656 L 873.488281 810.480469 L -56.171875 663.226562 Z M 70.78125 -138.28125 " clip-rule="nonzero"/></clipPath><clipPath id="c70e3ceabe"><path d="M 70.78125 -138.28125 L 1000.441406 8.972656 L 873.488281 810.480469 L -56.171875 663.226562 Z M 70.78125 -138.28125 " clip-rule="nonzero"/></clipPath><clipPath id="f5d5bba89a"><path d="M 745 310 L 747 310 L 747 312 L 745 312 Z M 745 310 " clip-rule="nonzero"/></clipPath><clipPath id="721856eae4"><path d="M 70.78125 -138.28125 L 1000.441406 8.972656 L 873.488281 810.480469 L -56.171875 663.226562 Z M 70.78125 -138.28125 " clip-rule="nonzero"/></clipPath><clipPath id="ec1cd6b39d"><path d="M 70.78125 -138.28125 L 1000.441406 8.972656 L 873.488281 810.480469 L -56.171875 663.226562 Z M 70.78125 -138.28125 " clip-rule="nonzero"/></clipPath><clipPath id="04d1b4bac8"><path d="M 969 45 L 970 45 L 970 47 L 969 47 Z M 969 45 " clip-rule="nonzero"/></clipPath><clipPath id="36032b2a8e"><path d="M 70.78125 -138.28125 L 1000.441406 8.972656 L 873.488281 810.480469 L -56.171875 663.226562 Z M 70.78125 -138.28125 " clip-rule="nonzero"/></clipPath><clipPath id="76b48c67d1"><path d="M 70.78125 -138.28125 L 1000.441406 8.972656 L 873.488281 810.480469 L -56.171875 663.226562 Z M 70.78125 -138.28125 " clip-rule="nonzero"/></clipPath><clipPath id="77017bf96d"><path d="M 811 252 L 820 252 L 820 262 L 811 262 Z M 811 252 " clip-rule="nonzero"/></clipPath><clipPath id="f323f9428b"><path d="M 70.78125 -138.28125 L 1000.441406 8.972656 L 873.488281 810.480469 L -56.171875 663.226562 Z M 70.78125 -138.28125 " clip-rule="nonzero"/></clipPath><clipPath id="0602f66c40"><path d="M 70.78125 -138.28125 L 1000.441406 8.972656 L 873.488281 810.480469 L -56.171875 663.226562 Z M 70.78125 -138.28125 " clip-rule="nonzero"/></clipPath><clipPath id="b4179002e8"><path d="M 791 273 L 793 273 L 793 275 L 791 275 Z M 791 273 " clip-rule="nonzero"/></clipPath><clipPath id="0fde1f8078"><path d="M 70.78125 -138.28125 L 1000.441406 8.972656 L 873.488281 810.480469 L -56.171875 663.226562 Z M 70.78125 -138.28125 " clip-rule="nonzero"/></clipPath><clipPath id="d9369b6364"><path d="M 70.78125 -138.28125 L 1000.441406 8.972656 L 873.488281 810.480469 L -56.171875 663.226562 Z M 70.78125 -138.28125 " clip-rule="nonzero"/></clipPath><clipPath id="4ed109ccfb"><path d="M 0 8 L 1001 8 L 1001 664 L 0 664 Z M 0 8 " clip-rule="nonzero"/></clipPath><clipPath id="f3bd8b286c"><path d="M 70.78125 -138.28125 L 1000.441406 8.972656 L 873.488281 810.480469 L -56.171875 663.226562 Z M 70.78125 -138.28125 " clip-rule="nonzero"/></clipPath><clipPath id="72b4dc4348"><path d="M 70.78125 -138.28125 L 1000.441406 8.972656 L 873.488281 810.480469 L -56.171875 663.226562 Z M 70.78125 -138.28125 " clip-rule="nonzero"/></clipPath><clipPath id="6f026aedc2"><path d="M 973 72 L 974 72 L 974 73 L 973 73 Z M 973 72 " clip-rule="nonzero"/></clipPath><clipPath id="dce5ba2c38"><path d="M 70.78125 -138.28125 L 1000.441406 8.972656 L 873.488281 810.480469 L -56.171875 663.226562 Z M 70.78125 -138.28125 " clip-rule="nonzero"/></clipPath><clipPath id="4d633ee7a4"><path d="M 70.78125 -138.28125 L 1000.441406 8.972656 L 873.488281 810.480469 L -56.171875 663.226562 Z M 70.78125 -138.28125 " clip-rule="nonzero"/></clipPath><clipPath id="6aa795efa5"><path d="M 853 214 L 856 214 L 856 216 L 853 216 Z M 853 214 " clip-rule="nonzero"/></clipPath><clipPath id="a0f1b4e198"><path d="M 70.78125 -138.28125 L 1000.441406 8.972656 L 873.488281 810.480469 L -56.171875 663.226562 Z M 70.78125 -138.28125 " clip-rule="nonzero"/></clipPath><clipPath id="7837ee186b"><path d="M 70.78125 -138.28125 L 1000.441406 8.972656 L 873.488281 810.480469 L -56.171875 663.226562 Z M 70.78125 -138.28125 " clip-rule="nonzero"/></clipPath><clipPath id="ad7c0ff6dd"><path d="M 916 117 L 919 117 L 919 123 L 916 123 Z M 916 117 " clip-rule="nonzero"/></clipPath><clipPath id="55e0f6cecf"><path d="M 70.78125 -138.28125 L 1000.441406 8.972656 L 873.488281 810.480469 L -56.171875 663.226562 Z M 70.78125 -138.28125 " clip-rule="nonzero"/></clipPath><clipPath id="ce3bf55f60"><path d="M 70.78125 -138.28125 L 1000.441406 8.972656 L 873.488281 810.480469 L -56.171875 663.226562 Z M 70.78125 -138.28125 " clip-rule="nonzero"/></clipPath><clipPath id="9af007e51c"><path d="M 988 31 L 993 31 L 993 37 L 988 37 Z M 988 31 " clip-rule="nonzero"/></clipPath><clipPath id="e23c45b03e"><path d="M 70.78125 -138.28125 L 1000.441406 8.972656 L 873.488281 810.480469 L -56.171875 663.226562 Z M 70.78125 -138.28125 " clip-rule="nonzero"/></clipPath><clipPath id="5668446d07"><path d="M 70.78125 -138.28125 L 1000.441406 8.972656 L 873.488281 810.480469 L -56.171875 663.226562 Z M 70.78125 -138.28125 " clip-rule="nonzero"/></clipPath><clipPath id="a4d7244d89"><path d="M 974 36 L 976 36 L 976 38 L 974 38 Z M 974 36 " clip-rule="nonzero"/></clipPath><clipPath id="7b73489f93"><path d="M 70.78125 -138.28125 L 1000.441406 8.972656 L 873.488281 810.480469 L -56.171875 663.226562 Z M 70.78125 -138.28125 " clip-rule="nonzero"/></clipPath><clipPath id="6870e8eb8d"><path d="M 70.78125 -138.28125 L 1000.441406 8.972656 L 873.488281 810.480469 L -56.171875 663.226562 Z M 70.78125 -138.28125 " clip-rule="nonzero"/></clipPath><clipPath id="33cdee786f"><path d="M 643 753 L 644 753 L 644 755 L 643 755 Z M 643 753 " clip-rule="nonzero"/></clipPath><clipPath id="de05e18803"><path d="M 660.429688 1117.375 L 599.636719 -2.226562 L 1419.675781 -46.753906 L 1480.46875 1072.847656 Z M 660.429688 1117.375 " clip-rule="nonzero"/></clipPath><clipPath id="1bc3711c9c"><path d="M 660.429688 1117.375 L 599.636719 -2.226562 L 1419.675781 -46.753906 L 1480.46875 1072.847656 Z M 660.429688 1117.375 " clip-rule="nonzero"/></clipPath><clipPath id="b24893b7a0"><path d="M 1046 401 L 1049 401 L 1049 404 L 1046 404 Z M 1046 401 " clip-rule="nonzero"/></clipPath><clipPath id="d7034a24f9"><path d="M 660.429688 1117.375 L 599.636719 -2.226562 L 1419.675781 -46.753906 L 1480.46875 1072.847656 Z M 660.429688 1117.375 " clip-rule="nonzero"/></clipPath><clipPath id="2a19fab9e3"><path d="M 660.429688 1117.375 L 599.636719 -2.226562 L 1419.675781 -46.753906 L 1480.46875 1072.847656 Z M 660.429688 1117.375 " clip-rule="nonzero"/></clipPath><clipPath id="c29c65c783"><path d="M 1017 313 L 1019 313 L 1019 315 L 1017 315 Z M 1017 313 " clip-rule="nonzero"/></clipPath><clipPath id="05eccbfc0e"><path d="M 660.429688 1117.375 L 599.636719 -2.226562 L 1419.675781 -46.753906 L 1480.46875 1072.847656 Z M 660.429688 1117.375 " clip-rule="nonzero"/></clipPath><clipPath id="7e89ca4846"><path d="M 660.429688 1117.375 L 599.636719 -2.226562 L 1419.675781 -46.753906 L 1480.46875 1072.847656 Z M 660.429688 1117.375 " clip-rule="nonzero"/></clipPath><clipPath id="82e0afd1b9"><path d="M 940 535 L 943 535 L 943 537 L 940 537 Z M 940 535 " clip-rule="nonzero"/></clipPath><clipPath id="c7d32a71aa"><path d="M 660.429688 1117.375 L 599.636719 -2.226562 L 1419.675781 -46.753906 L 1480.46875 1072.847656 Z M 660.429688 1117.375 " clip-rule="nonzero"/></clipPath><clipPath id="e66c76652b"><path d="M 660.429688 1117.375 L 599.636719 -2.226562 L 1419.675781 -46.753906 L 1480.46875 1072.847656 Z M 660.429688 1117.375 " clip-rule="nonzero"/></clipPath><clipPath id="3d7b922627"><path d="M 742 918 L 744 918 L 744 920 L 742 920 Z M 742 918 " clip-rule="nonzero"/></clipPath><clipPath id="2342e6810c"><path d="M 660.429688 1117.375 L 599.636719 -2.226562 L 1419.675781 -46.753906 L 1480.46875 1072.847656 Z M 660.429688 1117.375 " clip-rule="nonzero"/></clipPath><clipPath id="c81f61e6b9"><path d="M 660.429688 1117.375 L 599.636719 -2.226562 L 1419.675781 -46.753906 L 1480.46875 1072.847656 Z M 660.429688 1117.375 " clip-rule="nonzero"/></clipPath><clipPath id="81dda93b79"><path d="M 737 912 L 743 912 L 743 919 L 737 919 Z M 737 912 " clip-rule="nonzero"/></clipPath><clipPath id="556c833f3b"><path d="M 660.429688 1117.375 L 599.636719 -2.226562 L 1419.675781 -46.753906 L 1480.46875 1072.847656 Z M 660.429688 1117.375 " clip-rule="nonzero"/></clipPath><clipPath id="285d1aa742"><path d="M 660.429688 1117.375 L 599.636719 -2.226562 L 1419.675781 -46.753906 L 1480.46875 1072.847656 Z M 660.429688 1117.375 " clip-rule="nonzero"/></clipPath><clipPath id="07ebcc3b5b"><path d="M 740 916 L 741 916 L 741 918 L 740 918 Z M 740 916 " clip-rule="nonzero"/></clipPath><clipPath id="18aa295ba0"><path d="M 660.429688 1117.375 L 599.636719 -2.226562 L 1419.675781 -46.753906 L 1480.46875 1072.847656 Z M 660.429688 1117.375 " clip-rule="nonzero"/></clipPath><clipPath id="5e0527df10"><path d="M 660.429688 1117.375 L 599.636719 -2.226562 L 1419.675781 -46.753906 L 1480.46875 1072.847656 Z M 660.429688 1117.375 " clip-rule="nonzero"/></clipPath><clipPath id="85c13cc78b"><path d="M 959 575 L 961 575 L 961 576 L 959 576 Z M 959 575 " clip-rule="nonzero"/></clipPath><clipPath id="b09e2c79e5"><path d="M 660.429688 1117.375 L 599.636719 -2.226562 L 1419.675781 -46.753906 L 1480.46875 1072.847656 Z M 660.429688 1117.375 " clip-rule="nonzero"/></clipPath><clipPath id="a13a69078f"><path d="M 660.429688 1117.375 L 599.636719 -2.226562 L 1419.675781 -46.753906 L 1480.46875 1072.847656 Z M 660.429688 1117.375 " clip-rule="nonzero"/></clipPath><clipPath id="63a57ee7e1"><path d="M 982 223 L 984 223 L 984 225 L 982 225 Z M 982 223 " clip-rule="nonzero"/></clipPath><clipPath id="c82fb6b824"><path d="M 660.429688 1117.375 L 599.636719 -2.226562 L 1419.675781 -46.753906 L 1480.46875 1072.847656 Z M 660.429688 1117.375 " clip-rule="nonzero"/></clipPath><clipPath id="4da3ae150a"><path d="M 660.429688 1117.375 L 599.636719 -2.226562 L 1419.675781 -46.753906 L 1480.46875 1072.847656 Z M 660.429688 1117.375 " clip-rule="nonzero"/></clipPath><clipPath id="4a5486f1e6"><path d="M 1027 98 L 1042 98 L 1042 110 L 1027 110 Z M 1027 98 " clip-rule="nonzero"/></clipPath><clipPath id="378a038264"><path d="M 660.429688 1117.375 L 599.636719 -2.226562 L 1419.675781 -46.753906 L 1480.46875 1072.847656 Z M 660.429688 1117.375 " clip-rule="nonzero"/></clipPath><clipPath id="3bd83a01e0"><path d="M 660.429688 1117.375 L 599.636719 -2.226562 L 1419.675781 -46.753906 L 1480.46875 1072.847656 Z M 660.429688 1117.375 " clip-rule="nonzero"/></clipPath><clipPath id="c2f8385291"><path d="M 639 0 L 1420 0 L 1420 960 L 639 960 Z M 639 0 " clip-rule="nonzero"/></clipPath><clipPath id="cfb0feb493"><path d="M 660.429688 1117.375 L 599.636719 -2.226562 L 1419.675781 -46.753906 L 1480.46875 1072.847656 Z M 660.429688 1117.375 " clip-rule="nonzero"/></clipPath><clipPath id="6fcae01647"><path d="M 660.429688 1117.375 L 599.636719 -2.226562 L 1419.675781 -46.753906 L 1480.46875 1072.847656 Z M 660.429688 1117.375 " clip-rule="nonzero"/></clipPath><clipPath id="5ed50cdd75"><path d="M 997 129 L 999 129 L 999 132 L 997 132 Z M 997 129 " clip-rule="nonzero"/></clipPath><clipPath id="ea70d14de5"><path d="M 660.429688 1117.375 L 599.636719 -2.226562 L 1419.675781 -46.753906 L 1480.46875 1072.847656 Z M 660.429688 1117.375 " clip-rule="nonzero"/></clipPath><clipPath id="ad169cf3b9"><path d="M 660.429688 1117.375 L 599.636719 -2.226562 L 1419.675781 -46.753906 L 1480.46875 1072.847656 Z M 660.429688 1117.375 " clip-rule="nonzero"/></clipPath><clipPath id="25407dd076"><path d="M 1349 18 L 1350 18 L 1350 20 L 1349 20 Z M 1349 18 " clip-rule="nonzero"/></clipPath><clipPath id="bc0db44b5f"><path d="M 660.429688 1117.375 L 599.636719 -2.226562 L 1419.675781 -46.753906 L 1480.46875 1072.847656 Z M 660.429688 1117.375 " clip-rule="nonzero"/></clipPath><clipPath id="e0e76050b6"><path d="M 660.429688 1117.375 L 599.636719 -2.226562 L 1419.675781 -46.753906 L 1480.46875 1072.847656 Z M 660.429688 1117.375 " clip-rule="nonzero"/></clipPath><clipPath id="216bb97171"><path d="M 1106 73 L 1111 73 L 1111 75 L 1106 75 Z M 1106 73 " clip-rule="nonzero"/></clipPath><clipPath id="e048c02ca3"><path d="M 660.429688 1117.375 L 599.636719 -2.226562 L 1419.675781 -46.753906 L 1480.46875 1072.847656 Z M 660.429688 1117.375 " clip-rule="nonzero"/></clipPath><clipPath id="63c8f23f42"><path d="M 660.429688 1117.375 L 599.636719 -2.226562 L 1419.675781 -46.753906 L 1480.46875 1072.847656 Z M 660.429688 1117.375 " clip-rule="nonzero"/></clipPath><clipPath id="576b0db672"><path d="M 1249 25 L 1256 25 L 1256 29 L 1249 29 Z M 1249 25 " clip-rule="nonzero"/></clipPath><clipPath id="fcc95c740b"><path d="M 660.429688 1117.375 L 599.636719 -2.226562 L 1419.675781 -46.753906 L 1480.46875 1072.847656 Z M 660.429688 1117.375 " clip-rule="nonzero"/></clipPath><clipPath id="70a3a987c6"><path d="M 660.429688 1117.375 L 599.636719 -2.226562 L 1419.675781 -46.753906 L 1480.46875 1072.847656 Z M 660.429688 1117.375 " clip-rule="nonzero"/></clipPath></defs><rect x="-144" width="1728" fill="#ffffff" y="-95.999999" height="1151.999986" fill-opacity="1"/><rect x="-144" width="1728" fill="#2b6c9c" y="-95.999999" height="1151.999986" fill-opacity="1"/><g clip-path="url(#4305ff2f11)"><g clip-path="url(#5bd970be57)"><g clip-path="url(#5926bf2c9b)"><path fill="#4093a4" d="M 192.316406 318.230469 C 191.773438 318.527344 191.613281 318.820312 192.316406 318.230469 Z M 192.316406 318.230469 " fill-opacity="1" fill-rule="nonzero"/></g></g></g><g clip-path="url(#54ea56ee1d)"><g clip-path="url(#0c02cbf345)"><g clip-path="url(#7a739716c8)"><path fill="#4093a4" d="M 617.066406 351.316406 L 617.464844 351.378906 C 617.714844 350.980469 617.992188 350.601562 618.296875 350.246094 Z M 617.066406 351.316406 " fill-opacity="1" fill-rule="nonzero"/></g></g></g><g clip-path="url(#e0159fc38b)"><g clip-path="url(#4a3b599945)"><g clip-path="url(#0eec22eef3)"><path fill="#4093a4" d="M 686.550781 340.757812 L 686.992188 340.828125 C 686.878906 340.402344 686.878906 340.109375 686.550781 340.757812 Z M 686.550781 340.757812 " fill-opacity="1" fill-rule="nonzero"/></g></g></g><g clip-path="url(#3b4207dc40)"><g clip-path="url(#9148941343)"><g clip-path="url(#2c56705dbf)"><path fill="#4093a4" d="M 474.199219 288.363281 C 474.574219 288.605469 474.921875 288.878906 475.246094 289.1875 C 474.976562 288.8125 474.628906 288.539062 474.199219 288.363281 Z M 474.199219 288.363281 " fill-opacity="1" fill-rule="nonzero"/></g></g></g><g clip-path="url(#a38a4d9184)"><g clip-path="url(#f60e50583a)"><g clip-path="url(#4f8954de9f)"><path fill="#4093a4" d="M 91.484375 419.3125 L 91.6875 419.027344 C 91.441406 419.167969 91.210938 419.335938 90.9375 419.476562 Z M 91.484375 419.3125 " fill-opacity="1" fill-rule="nonzero"/></g></g></g><g clip-path="url(#e73afa812a)"><g clip-path="url(#17e777e466)"><g clip-path="url(#1df79fc14e)"><path fill="#4093a4" d="M 92.496094 417.347656 C 92.300781 417.40625 92.125 417.507812 91.976562 417.648438 C 92.164062 417.570312 92.335938 417.46875 92.496094 417.347656 Z M 92.496094 417.347656 " fill-opacity="1" fill-rule="nonzero"/></g></g></g><g clip-path="url(#d1c28f0585)"><g clip-path="url(#3921211e29)"><g clip-path="url(#17e6396362)"><path fill="#4093a4" d="M 92.496094 417.347656 C 92.851562 417.402344 92.035156 418.539062 91.707031 419.054688 C 93.371094 418.03125 94.722656 416.691406 95.757812 415.035156 C 95.316406 414.554688 93.574219 416.542969 92.496094 417.347656 Z M 92.496094 417.347656 " fill-opacity="1" fill-rule="nonzero"/></g></g></g><g clip-path="url(#74618ce564)"><g clip-path="url(#4433001e80)"><g clip-path="url(#c70e3ceabe)"><path fill="#4093a4" d="M 455.390625 317.71875 C 455.085938 317.492188 454.773438 317.191406 454.46875 316.964844 C 454.714844 317.289062 455.023438 317.542969 455.390625 317.71875 Z M 455.390625 317.71875 " fill-opacity="1" fill-rule="nonzero"/></g></g></g><g clip-path="url(#f5d5bba89a)"><g clip-path="url(#721856eae4)"><g clip-path="url(#ec1cd6b39d)"><path fill="#4093a4" d="M 745.464844 310.671875 C 745.675781 310.914062 745.9375 311.078125 746.25 311.15625 L 746.421875 311.070312 Z M 745.464844 310.671875 " fill-opacity="1" fill-rule="nonzero"/></g></g></g><g clip-path="url(#04d1b4bac8)"><g clip-path="url(#36032b2a8e)"><g clip-path="url(#76b48c67d1)"><path fill="#4093a4" d="M 969.328125 45.339844 L 969.367188 46.949219 C 969.597656 46.449219 969.742188 45.917969 969.796875 45.367188 C 969.644531 45.324219 969.488281 45.316406 969.328125 45.339844 Z M 969.328125 45.339844 " fill-opacity="1" fill-rule="nonzero"/></g></g></g><g clip-path="url(#77017bf96d)"><g clip-path="url(#f323f9428b)"><g clip-path="url(#0602f66c40)"><path fill="#4093a4" d="M 819.355469 253.019531 C 819.375 252.890625 819.414062 252.644531 819.300781 252.515625 C 816.410156 254.964844 813.726562 257.625 811.25 260.496094 L 811.992188 261.675781 Z M 819.355469 253.019531 " fill-opacity="1" fill-rule="nonzero"/></g></g></g><g clip-path="url(#b4179002e8)"><g clip-path="url(#0fde1f8078)"><g clip-path="url(#d9369b6364)"><path fill="#4093a4" d="M 791.914062 274.605469 L 792.332031 273.675781 C 792.15625 273.96875 792.015625 274.28125 791.914062 274.605469 Z M 791.914062 274.605469 " fill-opacity="1" fill-rule="nonzero"/></g></g></g><g clip-path="url(#4ed109ccfb)"><g clip-path="url(#f3bd8b286c)"><g clip-path="url(#72b4dc4348)"><path fill="#4093a4" d="M 976.066406 38.351562 C 981.527344 29.28125 977.070312 35.726562 975.34375 37.195312 L 975.582031 38.117188 C 972.113281 43.449219 970.695312 42.703125 968.832031 45.328125 C 968.988281 45.390625 969.148438 45.414062 969.316406 45.40625 L 969.386719 44.964844 C 969.773438 44.820312 969.871094 45.039062 969.855469 45.445312 C 970.207031 45.5 970.296875 45.921875 969.429688 47.414062 L 969.484375 47.058594 C 968.203125 49.855469 966.75 52.558594 965.125 55.171875 L 963.90625 54.570312 C 963.957031 57.25 959.417969 63.773438 954.511719 70.324219 C 949.605469 76.878906 944.171875 83.351562 942.671875 86.101562 C 940.394531 88.796875 938.589844 91.773438 937.253906 95.039062 C 935.679688 98.589844 933.820312 101.984375 931.683594 105.222656 C 925.183594 115.980469 926.894531 109.738281 922.835938 114.660156 C 918.246094 121.082031 924.992188 114.050781 923.527344 116.851562 L 917.082031 123.839844 C 919.699219 119.050781 917.503906 121.191406 916.550781 121.789062 C 912.226562 128.660156 903.746094 138.496094 904.628906 141.917969 C 897.769531 150.539062 896.859375 149.984375 894.28125 153.855469 C 895.511719 152.78125 897.546875 150.367188 898 150.640625 C 894.683594 153.738281 897.152344 152.566406 898.320312 151.191406 C 895.992188 157.609375 875.40625 177.476562 877.132812 180.28125 L 876.683594 179.984375 C 877.636719 182.398438 880.933594 181.699219 879.140625 186.167969 L 876.566406 188.136719 L 874.613281 192.488281 C 872.210938 194.640625 872.625 193.03125 872.398438 192.882812 C 870.234375 196.707031 867.761719 200.320312 864.984375 203.722656 C 861.980469 207.410156 858.574219 211.058594 855.65625 214.625 L 866.417969 210.511719 C 860.476562 215.886719 849.695312 225.265625 850.128906 227.664062 L 845.546875 230.175781 C 832.527344 239.5625 839.765625 239.554688 834.855469 243.550781 L 831.492188 245.800781 L 828.011719 247.921875 L 830.71875 245.113281 L 833.246094 242.164062 C 830.960938 244.195312 828.558594 246.078125 826.039062 247.8125 C 823.945312 249.3125 821.972656 250.628906 819.34375 252.386719 C 819.34375 252.386719 819.96875 252.007812 820.097656 252.050781 L 819.402344 252.871094 C 819.5625 254.296875 817.335938 257.769531 813.480469 261.683594 C 807.832031 266.945312 804.441406 272.199219 793.984375 278.960938 C 793.78125 280.242188 793.582031 281.5 793.210938 282.707031 L 785.25 287.691406 L 784.085938 286.332031 C 791.289062 280.84375 802.929688 268.339844 811.222656 260.242188 L 810.773438 259.515625 C 805.90625 264.378906 800.726562 270.253906 797.292969 273.21875 C 795.621094 274.355469 791.183594 276.503906 791.835938 274.253906 L 790.367188 277.527344 C 781.738281 285.011719 777.277344 288.761719 772.785156 292.417969 C 770.257812 294.425781 767.613281 296.269531 764.851562 297.949219 L 752.871094 305.464844 L 755.058594 304.949219 C 753.328125 306.578125 751.578125 308.199219 750.0625 309.363281 C 749.539062 309.863281 748.9375 310.242188 748.261719 310.5 C 747.585938 310.761719 746.886719 310.875 746.160156 310.851562 C 740.140625 314.582031 733.933594 318.214844 728.132812 321.277344 L 725.988281 322.40625 C 725.277344 322.746094 724.582031 323 723.882812 323.273438 C 722.496094 323.824219 721.144531 324.363281 719.824219 324.894531 C 717.390625 325.746094 714.917969 326.464844 712.40625 327.042969 C 712.144531 327.976562 711.863281 328.882812 711.582031 329.8125 C 708.867188 330.964844 703.640625 329.957031 703.535156 333.0625 C 701.753906 334.160156 699.988281 335.328125 698.164062 336.398438 C 694.40625 337.726562 692.554688 339.832031 687.835938 340.214844 L 686.941406 340.277344 C 686.96875 340.335938 687.003906 340.386719 687.054688 340.429688 C 678.214844 342.539062 687.761719 342.238281 677.539062 344.375 C 673.921875 343.804688 674.699219 348.023438 669.738281 348.933594 L 664.070312 347.3125 C 660.550781 347.449219 657.171875 348.214844 653.9375 349.597656 C 652.441406 350.175781 650.824219 350.824219 648.75 351.492188 C 646.171875 352.234375 643.558594 352.800781 640.902344 353.191406 C 634.449219 352.960938 631.253906 350.710938 634.953125 347.925781 C 629.648438 351.273438 632.605469 350.023438 625.261719 351.980469 C 624.03125 350.902344 624.820312 350.621094 626.378906 349.511719 C 619.757812 348.460938 622.367188 350.84375 617.355469 350.910156 C 615.972656 353.089844 614.316406 356.539062 612.636719 356.722656 L 614.636719 357.359375 C 608.730469 358.800781 602.8125 358.835938 596.886719 357.464844 L 597.214844 356.410156 L 590.441406 356.332031 L 590.167969 354.90625 C 587.027344 354.589844 583.816406 354.445312 580.699219 353.996094 L 581.917969 354.574219 C 580.816406 354.398438 578.398438 354.242188 575.792969 353.832031 C 573.273438 353.394531 570.816406 352.726562 568.421875 351.824219 L 568.761719 351.109375 C 563.613281 348.816406 558.289062 347.070312 552.785156 345.863281 L 548.628906 344.84375 L 544.300781 343.59375 C 541.207031 342.667969 538.191406 341.539062 535.246094 340.210938 L 537.609375 339.570312 C 534.09375 336.207031 535.410156 341.1875 530.761719 337.964844 L 531.414062 336.144531 C 525.882812 336.082031 526.164062 332.574219 523.792969 330.117188 L 523.847656 333.066406 C 522.089844 331.882812 520.457031 330.492188 518.757812 329.226562 C 513.414062 324.671875 517.0625 324.207031 518.585938 323.726562 L 513.667969 322.652344 L 514.238281 320.34375 C 509.960938 320.34375 511.726562 317.910156 506.179688 315.242188 C 506.332031 314.273438 507.777344 314.863281 506.484375 313.300781 C 504.914062 312.667969 503.316406 312.027344 501.75 311.351562 L 497.078125 309.140625 C 498.863281 310.148438 500.621094 311.195312 502.398438 312.246094 L 499.691406 314.214844 C 497.421875 313.425781 495.519531 312.105469 493.984375 310.257812 C 492.917969 308.511719 491.570312 307.023438 489.941406 305.792969 L 492.882812 307.367188 C 490.84375 305.902344 489.136719 304.125 487.753906 302.03125 C 486.890625 300.625 486.449219 299.425781 485.203125 297.574219 C 485.703125 298.988281 486.476562 301.101562 483.988281 299.101562 C 482.277344 297.496094 483.96875 297.378906 482.726562 295.507812 C 481.757812 296.054688 480.085938 295.472656 478.40625 294.214844 C 476.363281 292.664062 474.667969 290.796875 473.324219 288.609375 C 473.605469 288.40625 473.917969 288.347656 474.253906 288.441406 C 472.820312 287.8125 471.71875 286.816406 470.953125 285.453125 L 473.671875 284.839844 L 468.902344 282.976562 C 467.269531 280.273438 462.867188 278.21875 464.269531 277.378906 L 465.859375 278.332031 C 463.246094 275.40625 460.332031 272.523438 457.511719 269.632812 C 454.6875 266.742188 451.632812 263.90625 448.261719 261.199219 L 449.191406 259.46875 C 447.367188 259.699219 444.875 257.289062 442.332031 255.371094 C 439.785156 253.453125 437.671875 251.78125 437.121094 253.414062 C 435.949219 252.144531 434.609375 251.085938 433.097656 250.242188 C 431.324219 249.136719 429.480469 248.160156 427.570312 247.308594 C 423.945312 245.625 421.277344 244.183594 423.414062 243.121094 C 421.464844 242.1875 419.457031 241.402344 417.386719 240.761719 C 415.527344 240.097656 413.628906 239.539062 411.703125 239.09375 C 409.804688 238.792969 407.972656 238.503906 406.183594 238.105469 C 404.425781 237.773438 402.652344 237.53125 400.871094 237.378906 L 389.984375 236.265625 C 386.0625 235.757812 381.71875 235.339844 376.671875 234.632812 C 374.265625 233.640625 371.769531 233.042969 369.175781 232.832031 C 365.675781 232.515625 362.167969 232.464844 358.660156 232.683594 C 351.21875 233.171875 343.847656 234.160156 336.542969 235.652344 C 325.820312 238.535156 315.421875 242.3125 305.34375 246.980469 C 295.503906 251.535156 285.929688 256.585938 276.613281 262.136719 C 269.089844 263.660156 261.320312 268.585938 253.886719 273.949219 C 246.457031 279.308594 239.300781 285.214844 232.285156 288.515625 L 229.847656 292.335938 C 219.902344 295.875 209.425781 307.75 196.609375 313.839844 C 195.300781 315.40625 193.898438 316.882812 192.402344 318.265625 C 192.78125 318.042969 193.191406 317.945312 193.632812 317.964844 C 194.070312 317.984375 194.46875 318.121094 194.828125 318.378906 C 191.167969 320.0625 185.261719 325.644531 184.421875 323.519531 L 185.089844 322.742188 C 184.878906 322.210938 184.210938 322.421875 183.273438 323.066406 C 182.792969 323.375 182.25 323.808594 181.652344 324.300781 L 180.714844 325.082031 C 179.953125 325.679688 179.226562 326.320312 178.53125 327 C 177.925781 327.59375 177.351562 328.222656 176.8125 328.875 C 175.414062 330.601562 174.246094 332.46875 173.300781 334.472656 L 173.261719 334.71875 L 173.242188 334.851562 L 173.257812 334.738281 L 173.226562 334.9375 C 173.222656 335.027344 173.210938 335.117188 173.183594 335.203125 C 173.132812 335.535156 172.644531 335.613281 172.203125 335.410156 L 172.335938 335.429688 C 172.980469 335.910156 173.671875 336.320312 174.402344 336.664062 L 173.851562 336.984375 L 173.742188 336.964844 C 173.742188 336.964844 173.761719 336.832031 173.742188 336.964844 L 173.484375 337.171875 L 172.402344 337.996094 L 170.265625 339.648438 L 171.550781 337.953125 C 166.679688 343.625 161.449219 348.945312 155.859375 353.910156 C 151.042969 358.464844 146.429688 362.328125 141.820312 366.144531 C 137.011719 369.933594 132.433594 373.984375 128.089844 378.292969 C 123.027344 383.246094 118.488281 388.636719 114.464844 394.464844 C 115.457031 389.644531 111.207031 399.898438 108.867188 398.261719 C 107.105469 399.019531 105.519531 400.046875 104.105469 401.339844 C 102.691406 402.628906 101.527344 404.117188 100.613281 405.800781 C 98.8125 408.886719 97.640625 412.300781 95.828125 415.023438 C 95.9375 415.039062 96.015625 415.277344 95.921875 415.714844 L 88.164062 423.992188 C 89.929688 416.554688 85.007812 432.066406 86.808594 425.40625 C 81.46875 430.554688 76.203125 436.535156 70.773438 442.824219 C 65.34375 449.113281 60.191406 456.082031 54.816406 463.035156 C 49.4375 469.992188 44.421875 477.386719 39.132812 484.515625 C 33.839844 491.640625 28.933594 498.921875 23.738281 505.722656 L 25.363281 505.03125 C 20.296875 512.035156 15.351562 521.546875 10.421875 526.242188 C 5.496094 530.9375 4.648438 539.5625 3.441406 541.769531 C 1.179688 547.902344 -3.972656 551.589844 -3.757812 550.515625 C -7.074219 557.164062 -8.277344 564.757812 -14.847656 572.835938 C -19.300781 574.394531 -27.097656 599.179688 -30.105469 597.753906 L -29.917969 598.007812 C -34.078125 603.324219 -37.519531 609.070312 -40.25 615.246094 C -43.03125 621.660156 -46.480469 627.691406 -50.601562 633.335938 C -50.65625 633.035156 -50.667969 632.730469 -50.636719 632.425781 C -52.453125 642.75 -54.117188 653.097656 -55.84375 663.28125 L -41.726562 661.417969 C -34.902344 655.464844 -28.101562 649.503906 -21.222656 643.644531 C -10.632812 623.238281 0.324219 603.101562 11.644531 583.230469 C 22.21875 568.296875 32.933594 553.5 44.054688 539.105469 C 56.027344 520.636719 68.792969 502.585938 81.910156 484.910156 C 88.625 476.222656 95.199219 467.398438 102.234375 458.984375 C 105.730469 454.765625 109.070312 450.382812 112.703125 446.296875 L 123.46875 433.882812 C 124.863281 430.933594 126.359375 428.050781 127.898438 425.195312 C 133.371094 420.992188 138.53125 416.441406 143.382812 411.535156 C 148.679688 406.648438 153.800781 401.328125 159.023438 395.910156 C 164.246094 390.492188 169.730469 385.433594 175.28125 380.382812 C 177.945312 377.839844 180.859375 375.566406 183.71875 373.371094 C 186.578125 371.175781 189.464844 369.074219 192.351562 367.132812 L 191.371094 365.054688 C 192.316406 364.210938 193.125 363.546875 193.816406 363.023438 L 194.761719 362.335938 C 195.257812 361.871094 195.796875 361.46875 196.382812 361.121094 L 199.949219 358.722656 C 200.808594 358.199219 201.570312 357.566406 202.242188 356.820312 C 202.882812 355.925781 203.417969 354.972656 203.976562 354.019531 L 204.527344 352.953125 L 204.683594 352.839844 L 207.53125 350.710938 L 218.832031 342.183594 C 226.300781 336.578125 233.730469 330.964844 241.175781 325.359375 C 255.582031 314.40625 270.539062 304.269531 286.050781 294.949219 C 300.605469 286.164062 316.015625 279.3125 332.285156 274.394531 C 339.664062 272.195312 347.1875 270.734375 354.851562 270.011719 C 362.519531 269.285156 370.179688 269.3125 377.839844 270.09375 C 380.609375 271.027344 386.171875 271.617188 391.582031 272.878906 C 392.90625 273.089844 394.382812 273.324219 395.484375 273.792969 L 398.625 274.832031 C 399.5 275.105469 400.351562 275.433594 401.179688 275.824219 C 401.761719 276.152344 402.304688 276.53125 402.808594 276.964844 C 407.238281 277.902344 411.492188 279.351562 415.574219 281.316406 C 419.652344 283.277344 423.441406 285.695312 426.9375 288.574219 C 434.972656 295.113281 442.359375 302.316406 449.097656 310.183594 L 448.375 309.753906 L 455.65625 317.039062 C 455.832031 317.496094 455.660156 317.71875 455.324219 317.574219 C 460.945312 322.382812 466.210938 327.550781 471.121094 333.085938 C 476.9375 339.246094 483.054688 345.09375 489.464844 350.632812 L 488.597656 350.269531 C 497.640625 357.21875 507.25 363.265625 517.421875 368.417969 C 527.597656 373.566406 538.160156 377.726562 549.113281 380.898438 C 559.707031 383.921875 570.46875 386.109375 581.402344 387.460938 C 592.332031 388.8125 603.304688 389.3125 614.316406 388.964844 C 635.957031 388.324219 657.207031 385.105469 678.070312 379.308594 C 699.117188 373.519531 719.390625 365.71875 738.890625 355.902344 C 743.691406 353.785156 748.316406 351.332031 752.765625 348.554688 C 757.285156 345.875 761.828125 343.042969 766.40625 340.125 C 768.699219 338.671875 770.914062 337.105469 773.054688 335.429688 L 779.582031 330.46875 C 783.941406 327.085938 788.402344 323.765625 792.703125 320.191406 C 809.660156 305.519531 826.550781 289.84375 842.996094 273.984375 C 846.761719 271.777344 864.101562 253.273438 879.050781 233.152344 C 890.085938 218.914062 900.152344 204.019531 909.246094 188.46875 L 901.332031 196.019531 C 905.734375 188.796875 909.734375 182.664062 913.378906 177.085938 L 923.488281 161.511719 C 930.367188 151.144531 936.507812 140.359375 941.914062 129.15625 L 941.648438 130.832031 C 942.996094 129.191406 942.585938 127.066406 945.496094 120.828125 C 947.664062 116.328125 950.140625 112.007812 952.933594 107.863281 C 956.660156 102.1875 961.628906 94.941406 968.726562 85.679688 L 968.972656 85.71875 C 969.425781 84.144531 970.210938 82.761719 971.324219 81.566406 L 966.109375 87.796875 C 967.558594 82.871094 969.300781 78.046875 971.339844 73.332031 C 972.230469 72.273438 972.933594 72.136719 973.371094 72.226562 L 980.105469 58.269531 L 983.835938 54.855469 C 985.15625 50.222656 980.917969 50.433594 988.429688 40.128906 C 983.960938 43.199219 989.945312 33.851562 988.078125 34.640625 C 988.644531 34.210938 989.738281 33.140625 990.707031 32.320312 C 993.886719 25.515625 999.707031 12.632812 1000.15625 8.925781 C 1000.359375 8.933594 982.140625 32.570312 976.066406 38.351562 Z M 193.953125 343.3125 L 192.097656 340.753906 Z M 193.953125 343.3125 " fill-opacity="1" fill-rule="nonzero"/></g></g></g><g clip-path="url(#6f026aedc2)"><g clip-path="url(#dce5ba2c38)"><g clip-path="url(#4d633ee7a4)"><path fill="#4093a4" d="M 973.457031 72.242188 L 973.40625 72.570312 C 974.136719 72.960938 974.074219 72.339844 973.457031 72.242188 Z M 973.457031 72.242188 " fill-opacity="1" fill-rule="nonzero"/></g></g></g><g clip-path="url(#6aa795efa5)"><g clip-path="url(#a0f1b4e198)"><g clip-path="url(#7837ee186b)"><path fill="#4093a4" d="M 855.109375 215.214844 L 855.472656 214.777344 L 853.070312 215.664062 Z M 855.109375 215.214844 " fill-opacity="1" fill-rule="nonzero"/></g></g></g><g clip-path="url(#ad7c0ff6dd)"><g clip-path="url(#55e0f6cecf)"><g clip-path="url(#ce3bf55f60)"><path fill="#4093a4" d="M 916.488281 121.890625 C 917.371094 120.582031 918.082031 119.1875 918.621094 117.703125 C 915.722656 122.019531 915.78125 122.34375 916.488281 121.890625 Z M 916.488281 121.890625 " fill-opacity="1" fill-rule="nonzero"/></g></g></g><g clip-path="url(#9af007e51c)"><g clip-path="url(#e23c45b03e)"><g clip-path="url(#5668446d07)"><path fill="#4093a4" d="M 990.925781 32.355469 L 988.855469 36.710938 C 989.761719 35.429688 990.921875 34.253906 991.855469 32.929688 C 993.210938 30.5 992.222656 31.179688 990.925781 32.355469 Z M 990.925781 32.355469 " fill-opacity="1" fill-rule="nonzero"/></g></g></g><g clip-path="url(#a4d7244d89)"><g clip-path="url(#7b73489f93)"><g clip-path="url(#6870e8eb8d)"><path fill="#4093a4" d="M 975.347656 37.171875 L 975.074219 36.042969 C 974.488281 37.601562 974.773438 37.671875 975.347656 37.171875 Z M 975.347656 37.171875 " fill-opacity="1" fill-rule="nonzero"/></g></g></g><g clip-path="url(#33cdee786f)"><g clip-path="url(#de05e18803)"><g clip-path="url(#1bc3711c9c)"><path fill="#6daee9" d="M 643.082031 753.726562 C 643.132812 754.632812 643.4375 755.042969 643.082031 753.726562 Z M 643.082031 753.726562 " fill-opacity="1" fill-rule="nonzero"/></g></g></g><g clip-path="url(#b24893b7a0)"><g clip-path="url(#d7034a24f9)"><g clip-path="url(#2a19fab9e3)"><path fill="#6daee9" d="M 1048.5625 403.210938 L 1048.535156 402.671875 C 1047.980469 402.4375 1047.445312 402.164062 1046.929688 401.851562 Z M 1048.5625 403.210938 " fill-opacity="1" fill-rule="nonzero"/></g></g></g><g clip-path="url(#c29c65c783)"><g clip-path="url(#05eccbfc0e)"><g clip-path="url(#7e89ca4846)"><path fill="#6daee9" d="M 1018.332031 314.464844 L 1018.300781 313.839844 C 1017.917969 314.089844 1017.550781 314.109375 1018.332031 314.464844 Z M 1018.332031 314.464844 " fill-opacity="1" fill-rule="nonzero"/></g></g></g><g clip-path="url(#82e0afd1b9)"><g clip-path="url(#c7d32a71aa)"><g clip-path="url(#e66c76652b)"><path fill="#6daee9" d="M 940.722656 536.050781 C 941.222656 535.8125 941.742188 535.625 942.277344 535.484375 C 941.707031 535.523438 941.1875 535.714844 940.722656 536.050781 Z M 940.722656 536.050781 " fill-opacity="1" fill-rule="nonzero"/></g></g></g><g clip-path="url(#3d7b922627)"><g clip-path="url(#2342e6810c)"><g clip-path="url(#c81f61e6b9)"><path fill="#6daee9" d="M 742.867188 918.5625 L 742.511719 918.269531 C 742.671875 918.601562 742.890625 918.957031 743.050781 919.316406 Z M 742.867188 918.5625 " fill-opacity="1" fill-rule="nonzero"/></g></g></g><g clip-path="url(#81dda93b79)"><g clip-path="url(#556c833f3b)"><g clip-path="url(#285d1aa742)"><path fill="#6daee9" d="M 740.398438 916.964844 C 740.375 916.484375 741.914062 917.734375 742.539062 918.238281 C 741.335938 915.910156 739.699219 913.949219 737.625 912.347656 C 737.085938 912.890625 739.4375 915.429688 740.398438 916.964844 Z M 740.398438 916.964844 " fill-opacity="1" fill-rule="nonzero"/></g></g></g><g clip-path="url(#07ebcc3b5b)"><g clip-path="url(#18aa295ba0)"><g clip-path="url(#5e0527df10)"><path fill="#6daee9" d="M 740.398438 916.964844 C 740.464844 917.230469 740.578125 917.46875 740.75 917.683594 C 740.664062 917.429688 740.546875 917.1875 740.398438 916.964844 Z M 740.398438 916.964844 " fill-opacity="1" fill-rule="nonzero"/></g></g></g><g clip-path="url(#85c13cc78b)"><g clip-path="url(#b09e2c79e5)"><g clip-path="url(#a13a69078f)"><path fill="#6daee9" d="M 960.695312 575.367188 C 960.195312 575.5625 959.636719 575.707031 959.191406 575.902344 C 959.734375 575.835938 960.234375 575.65625 960.695312 575.367188 Z M 960.695312 575.367188 " fill-opacity="1" fill-rule="nonzero"/></g></g></g><g clip-path="url(#63a57ee7e1)"><g clip-path="url(#c82fb6b824)"><g clip-path="url(#4da3ae150a)"><path fill="#6daee9" d="M 982.269531 224.273438 C 982.660156 224.117188 982.957031 223.855469 983.164062 223.488281 L 983.148438 223.207031 Z M 982.269531 224.273438 " fill-opacity="1" fill-rule="nonzero"/></g></g></g><g clip-path="url(#4a5486f1e6)"><g clip-path="url(#378a038264)"><g clip-path="url(#3bd83a01e0)"><path fill="#6daee9" d="M 1031.246094 106.742188 L 1034.601562 104.292969 C 1036.835938 102.636719 1039.101562 101.011719 1041.402344 99.523438 C 1041.394531 99.328125 1041.632812 99.03125 1041.566406 98.863281 C 1036.472656 101.25 1031.734375 104.214844 1027.359375 107.75 L 1027.988281 109.417969 Z M 1031.246094 106.742188 " fill-opacity="1" fill-rule="nonzero"/></g></g></g><g clip-path="url(#c2f8385291)"><g clip-path="url(#cfb0feb493)"><g clip-path="url(#6fcae01647)"><path fill="#6daee9" d="M 1419.46875 -46.601562 C 1419.46875 -46.601562 1411.097656 -40.472656 1401.679688 -33.691406 C 1396.773438 -30.585938 1391.414062 -27.457031 1386.785156 -24.9375 C 1384.441406 -23.675781 1382.355469 -22.398438 1380.332031 -21.550781 C 1378.308594 -20.703125 1376.617188 -19.988281 1375.308594 -19.546875 C 1387.074219 -27.421875 1378.003906 -22.105469 1375.214844 -21.300781 L 1374.964844 -20.097656 C 1367.75 -15.621094 1366.609375 -17.289062 1362.894531 -15.214844 C 1363.046875 -15.070312 1363.222656 -14.964844 1363.421875 -14.902344 L 1363.675781 -15.457031 C 1364.183594 -15.484375 1364.152344 -15.054688 1363.921875 -14.617188 C 1364.25 -14.324219 1364.164062 -13.808594 1362.246094 -12.539062 L 1362.476562 -12.980469 C 1359.203125 -10.566406 1355.789062 -8.375 1352.226562 -6.40625 L 1351.246094 -7.800781 C 1349.199219 -5.394531 1346.738281 -3.539062 1343.863281 -2.238281 C 1339.996094 -0.296875 1335.027344 1.648438 1329.996094 3.566406 C 1327.496094 4.496094 1325 5.511719 1322.515625 6.296875 L 1315.433594 8.527344 C 1312.113281 9.457031 1308.855469 10.582031 1305.664062 11.894531 C 1301.21875 13.027344 1297 14.722656 1293.007812 16.980469 C 1288.609375 19.523438 1283.996094 21.578125 1279.164062 23.148438 C 1263.730469 28.8125 1270.695312 23.921875 1262.480469 25.617188 C 1252.464844 28.175781 1265.148438 26.746094 1261.320312 28.289062 L 1248.925781 30.324219 C 1255.558594 27.664062 1251.636719 28.019531 1250.09375 27.878906 C 1247.589844 28.722656 1244.515625 29.542969 1241.722656 30.347656 C 1238.929688 31.148438 1235.5625 31.84375 1232.683594 32.625 C 1226.957031 34.183594 1222.253906 35.859375 1221.238281 38.011719 C 1207.015625 40.910156 1206.578125 39.601562 1200.660156 41.371094 C 1202.808594 41.253906 1206.886719 40.605469 1207.121094 41.246094 C 1201.179688 41.570312 1204.605469 42.460938 1206.964844 42.050781 C 1199.082031 46.25 1161.386719 49.800781 1160.675781 53.925781 L 1160.46875 53.285156 C 1159.3125 56.550781 1163.289062 58.179688 1157.820312 61.457031 L 1153.511719 61.492188 L 1148.003906 64.484375 C 1143.742188 64.859375 1145.484375 63.542969 1145.382812 63.210938 C 1136.054688 67.433594 1122.050781 70.152344 1110.199219 73.832031 C 1115.148438 74.808594 1120.074219 75.855469 1124.972656 76.972656 C 1114.5625 78.445312 1095.621094 81.117188 1094.429688 84.304688 L 1087.582031 84.050781 C 1065.867188 87.300781 1074.550781 91.566406 1066.1875 93.726562 C 1062.535156 94.375 1058.890625 95.171875 1055.191406 95.96875 C 1058.453125 94.371094 1061.710938 92.777344 1064.976562 91.265625 C 1054.582031 94.667969 1050.25 95.839844 1041.625 98.886719 C 1042.207031 98.65625 1042.628906 98.578125 1042.777344 98.683594 L 1041.460938 99.550781 C 1040.996094 101.417969 1036.523438 105.207031 1030.078125 109.8125 C 1025.542969 113.074219 1021.324219 116.707031 1017.425781 120.714844 C 1015.363281 122.925781 1012.894531 124.960938 1010.402344 127.675781 C 1009.113281 128.996094 1007.710938 130.347656 1006.203125 131.792969 C 1004.691406 133.234375 1003.226562 134.960938 1001.535156 136.699219 L 1001.347656 139.546875 L 1001.332031 142.382812 C 999.90625 144.277344 998.417969 146.117188 997.046875 148.089844 L 993.269531 154.253906 L 991.183594 153.375 C 994.964844 144.636719 999.796875 136.523438 1005.683594 129.039062 C 1007.390625 127.019531 1009.058594 124.855469 1011.023438 122.90625 L 1016.558594 117.242188 C 1020.074219 113.957031 1023.753906 110.863281 1027.597656 107.960938 L 1027.230469 106.933594 C 1019.363281 113.042969 1012.28125 119.953125 1005.980469 127.664062 C 1005.332031 128.265625 1004.351562 129.027344 1003.257812 129.769531 C 1002.332031 130.558594 1001.347656 131.273438 1000.3125 131.914062 C 998.9375 132.726562 997.925781 132.894531 998.132812 131.519531 C 997.546875 133.253906 996.960938 134.988281 996.457031 136.691406 C 994.214844 140.253906 992.191406 143.9375 990.394531 147.742188 C 988.90625 150.753906 987.628906 153.847656 986.558594 157.03125 C 984.734375 161.988281 983.308594 167.058594 982.28125 172.242188 C 981.210938 177.4375 980.472656 182.679688 980.070312 187.964844 C 979.492188 195.53125 979.535156 203.097656 980.199219 210.65625 L 980.863281 207.273438 C 982.507812 214.558594 984.742188 221.246094 983.429688 223.671875 C 988.214844 245.003906 995.355469 264.699219 998.089844 278 L 1001.691406 279.535156 C 1003.292969 283.476562 1002.304688 290.851562 1006.605469 291.183594 L 1011.554688 298.746094 C 1013.847656 303.925781 1016.761719 306.40625 1018.1875 312.796875 L 1018.425781 314.03125 C 1018.488281 313.996094 1018.542969 313.945312 1018.585938 313.882812 C 1023.058594 325.726562 1020.707031 312.746094 1025.617188 326.351562 C 1025.882812 331.300781 1030.890625 329.46875 1033.285156 336.007812 C 1033.148438 338.652344 1032.890625 341.277344 1032.664062 343.871094 C 1033.757812 348.480469 1035.613281 352.757812 1038.238281 356.703125 C 1041.53125 361.734375 1044.175781 367.085938 1046.171875 372.757812 C 1047.652344 381.1875 1045.394531 385.59375 1041.175781 381.539062 C 1042.632812 382.941406 1044 384.429688 1045.273438 385.996094 C 1046.511719 388.148438 1047.578125 390.378906 1048.472656 392.691406 C 1047.40625 394.449219 1046.875 393.515625 1045.136719 391.820312 C 1045.597656 400.308594 1047.605469 396.511719 1048.765625 402.746094 C 1051.839844 404.023438 1056.402344 405.507812 1056.882812 407.609375 L 1057.363281 404.972656 C 1058.695312 408.429688 1059.628906 411.992188 1060.15625 415.660156 C 1060.433594 417.53125 1060.59375 419.414062 1060.632812 421.308594 C 1060.597656 423.308594 1060.449219 425.304688 1060.191406 427.289062 L 1058.816406 427.023438 C 1059.253906 429.835938 1059.125 432.679688 1059.476562 435.5 L 1057.714844 435.964844 C 1057.824219 437.972656 1057.617188 439.914062 1057.613281 441.898438 C 1057.605469 443.882812 1057.542969 445.875 1057.28125 447.816406 L 1057.992188 446.273438 C 1057.894531 447.640625 1057.6875 450.632812 1057.269531 453.890625 C 1056.765625 456.980469 1055.90625 459.964844 1054.695312 462.851562 L 1053.820312 462.417969 C 1052.972656 463.949219 1052.21875 465.519531 1051.550781 467.136719 C 1050.957031 468.730469 1050.121094 470.050781 1049.558594 471.671875 C 1048.449219 474.765625 1047.039062 477.480469 1046.019531 480.6875 C 1045.511719 482.273438 1044.675781 483.597656 1044.023438 485.191406 C 1043.375 486.785156 1042.605469 488.320312 1041.722656 489.800781 L 1038.882812 494.4375 C 1037.742188 495.886719 1036.492188 497.402344 1035.179688 498.863281 L 1035.027344 496.035156 C 1030 498.519531 1036.398438 499.367188 1030.929688 503.09375 L 1029.082031 501.464844 C 1026.835938 507.601562 1022.871094 505.574219 1019.019531 506.75 C 1020.125 507.285156 1021.234375 507.847656 1022.367188 508.355469 C 1020.148438 509.628906 1017.859375 510.820312 1015.5 511.933594 C 1007.425781 515.207031 1009.007812 510.894531 1009.265625 508.894531 C 1008.023438 510.523438 1006.609375 512.160156 1005.277344 513.765625 L 1003.039062 511.730469 C 1000.460938 516.496094 999.03125 513.082031 992.496094 517.550781 C 991.515625 516.78125 993.121094 515.503906 990.511719 516.042969 C 987.003906 518.8125 983.144531 521.351562 979.378906 524.078125 L 986.410156 519.867188 L 986.835938 524.070312 C 979.832031 529.8125 975.660156 527.175781 970.140625 529.972656 L 973.8125 527.617188 C 970.855469 529.023438 967.742188 529.84375 964.476562 530.082031 C 962.355469 530.195312 960.691406 529.890625 957.871094 530.128906 C 959.730469 530.453125 962.617188 530.890625 958.789062 532.402344 C 956.003906 533.347656 956.890625 531.402344 954.035156 531.554688 C 953.988281 534.394531 947.242188 537.597656 940.421875 537.34375 C 940.390625 536.894531 940.539062 536.519531 940.871094 536.214844 C 939.269531 537.332031 937.488281 537.835938 935.539062 537.722656 L 936.691406 534.398438 C 935.03125 535.707031 933.34375 537.019531 931.625 538.246094 C 927.726562 538.035156 922.59375 541.148438 922.761719 539.011719 L 924.808594 538.050781 C 915.292969 539.363281 905.625 540.425781 895.867188 541.464844 L 895.144531 539.09375 C 892.707031 542.800781 879.027344 539.96875 880.488281 543.917969 C 874.730469 542.332031 858.636719 548.367188 861.335938 543.257812 C 852.726562 544.410156 844.25 546.195312 835.90625 548.609375 C 831.855469 549.707031 827.683594 550.757812 822.96875 551.664062 C 818.253906 552.574219 813 553.425781 806.75 554.277344 C 803.582031 553.792969 800.414062 553.777344 797.246094 554.226562 C 793.332031 554.777344 788.820312 555.734375 784.226562 556.832031 C 779.636719 557.933594 774.820312 559.613281 770.28125 561.136719 L 757.320312 565.8125 C 744.101562 571.914062 731.480469 579.078125 719.464844 587.300781 L 711.0625 593.433594 C 708.339844 595.539062 705.628906 597.839844 702.691406 600.101562 C 699.75 602.359375 697.054688 604.917969 694.132812 607.570312 L 689.703125 611.613281 L 685.113281 615.863281 C 682.652344 617.226562 680.324219 618.789062 678.136719 620.554688 C 675.867188 622.605469 673.703125 624.765625 671.652344 627.035156 C 670.609375 628.226562 669.511719 629.363281 668.53125 630.664062 L 665.714844 634.707031 C 663.882812 637.5 661.875 640.191406 660.28125 643.226562 L 655.527344 652.308594 C 653.925781 655.234375 652.804688 658.558594 651.40625 661.554688 L 649.382812 666.035156 C 648.667969 667.492188 648.207031 668.933594 647.613281 670.527344 C 646.4375 673.429688 645.089844 676.339844 643.902344 678.984375 C 644.023438 681.21875 644.148438 683.539062 644.46875 685.761719 C 642.523438 689.714844 641.1875 693.863281 640.464844 698.207031 C 639.621094 703.179688 639.195312 708.1875 639.183594 713.230469 C 638.988281 723.738281 640.089844 734.65625 640.152344 745.207031 C 641.921875 750.101562 642.878906 752.578125 643.167969 753.722656 C 643.054688 753.113281 643.121094 752.523438 643.363281 751.953125 C 643.605469 751.386719 643.984375 750.929688 644.5 750.585938 C 644.84375 754.203125 645.453125 757.773438 646.328125 761.296875 C 647.082031 764.746094 647.429688 767.480469 645.984375 767.445312 L 645.3125 766.089844 C 643.816406 766.171875 645.339844 770.257812 647.308594 775.175781 C 649.277344 780.089844 651.765625 785.710938 651.808594 789.113281 L 653.390625 784.800781 C 654.484375 788.203125 655.605469 791.605469 656.777344 794.945312 L 655.144531 792.535156 C 667.144531 812.480469 674.039062 827.171875 681.65625 841.566406 C 689.273438 855.964844 697.359375 869.625 712.992188 884.378906 C 706.855469 882.074219 719.605469 889.695312 717.175781 892.464844 C 717.9375 894.9375 719.085938 897.210938 720.625 899.289062 C 722.160156 901.363281 724 903.128906 726.140625 904.574219 C 729.988281 907.488281 734.167969 909.8125 737.628906 912.460938 C 737.628906 912.460938 737.988281 912.273438 738.535156 912.414062 C 741.945312 916.171875 745.246094 920.019531 748.785156 923.628906 C 739.113281 920.46875 759.246094 928.738281 750.5625 925.519531 C 765.246094 942.089844 781.523438 956.902344 799.402344 969.960938 C 818.179688 984.179688 838.523438 997.371094 857.433594 1009.847656 L 856.359375 1007.808594 C 866.003906 1014.09375 879.082031 1019.964844 885.695312 1025.820312 C 892.308594 1031.671875 903.828125 1032.269531 906.828125 1033.722656 C 915.183594 1036.105469 920.707031 1042.246094 919.25 1042.070312 C 928.359375 1045.859375 938.4375 1046.53125 949.957031 1053.964844 C 951.296875 1056.726562 960.347656 1059.953125 968.875 1062.867188 C 977.398438 1065.777344 985.425781 1068.464844 984.746094 1070.515625 L 985.042969 1070.242188 C 1000.164062 1080.316406 1017.675781 1082.144531 1034.269531 1092.109375 C 1033.878906 1092.1875 1033.480469 1092.207031 1033.082031 1092.175781 L 1074.101562 1094.96875 L 1069.453125 1077.292969 L 1042.957031 1053.652344 C 1014.765625 1042.640625 986.847656 1031.449219 959.527344 1019.230469 C 938.671875 1007.507812 918.296875 995.253906 898.644531 982.21875 C 873.789062 968.359375 849.972656 952.90625 827.183594 935.855469 C 804.632812 918.953125 783.707031 900.230469 764.410156 879.6875 L 754.027344 872.847656 C 745.417969 858.417969 733.929688 843.808594 723.402344 828.011719 C 712.875 812.210938 703.367188 795.367188 698.511719 778.578125 L 695.699219 778.988281 C 691.863281 769.972656 693.878906 769.980469 693.519531 767.585938 C 685.839844 746.753906 681.363281 725.4375 683.589844 705.851562 L 684.042969 702.195312 C 684.261719 700.992188 684.566406 699.8125 684.8125 698.609375 C 685.390625 696.222656 685.683594 693.765625 686.4375 691.429688 L 688.75 684.410156 C 689.53125 682.066406 690.742188 679.875 691.695312 677.582031 C 692.230469 676.445312 692.648438 675.289062 693.242188 674.207031 L 695.136719 670.953125 C 696.320312 668.71875 697.640625 666.566406 699.097656 664.496094 L 703.523438 658.242188 L 708.558594 652.296875 C 715.785156 644.472656 723.710938 637.441406 732.335938 631.203125 C 740.960938 624.960938 750.117188 619.628906 759.804688 615.214844 C 764.550781 612.800781 769.582031 610.9375 774.453125 608.742188 C 776.929688 607.816406 779.464844 606.96875 781.941406 606.09375 C 784.417969 605.222656 786.921875 604.378906 789.46875 603.699219 L 797.007812 601.53125 L 804.597656 599.785156 C 807.085938 599.167969 809.640625 598.664062 812.28125 598.207031 L 820.035156 596.820312 C 826.832031 596.429688 833.585938 595.644531 840.296875 594.472656 C 846.683594 593.316406 853.125 592.824219 859.613281 593 C 887.007812 585.667969 917.785156 582.632812 947.472656 577.332031 L 946.421875 577.84375 L 953.339844 576.25 L 960.277344 574.480469 C 960.898438 574.449219 961.066406 574.894531 960.65625 575.199219 C 975.964844 569.347656 1001.117188 565.144531 1021.074219 557.109375 L 1020.066406 557.902344 C 1027.59375 554.714844 1034.792969 550.90625 1041.660156 546.472656 C 1048.53125 542.042969 1054.96875 537.054688 1060.972656 531.507812 C 1064.101562 528.5 1066.820312 525.316406 1069.714844 522.183594 C 1072.605469 519.046875 1074.847656 515.433594 1077.359375 512.0625 C 1079.871094 508.695312 1081.765625 504.929688 1083.75 501.277344 C 1085.734375 497.621094 1087.488281 493.867188 1088.8125 490.078125 C 1094.625 475.304688 1097.980469 459.992188 1098.882812 444.140625 C 1099.792969 429.140625 1098.984375 414.230469 1096.453125 399.417969 C 1095.238281 392.136719 1093.628906 384.988281 1091.742188 377.914062 C 1090.8125 374.363281 1089.660156 370.90625 1088.617188 367.386719 C 1087.578125 363.871094 1086.296875 360.648438 1085.234375 357.273438 C 1080.398438 343.945312 1074.800781 331.199219 1068.964844 318.808594 C 1057.488281 293.898438 1045.355469 270.46875 1036.480469 246.496094 L 1031.265625 229.359375 C 1029.601562 223.777344 1028.050781 218.1875 1026.78125 212.582031 C 1024.070312 202.210938 1023.167969 191.6875 1024.078125 181.007812 C 1024.613281 176.203125 1025.859375 171.585938 1027.804688 167.160156 C 1029.78125 162.480469 1032.382812 158.175781 1035.613281 154.253906 C 1039.191406 149.980469 1043.199219 146.160156 1047.636719 142.792969 C 1052.480469 139.191406 1057.613281 136.078125 1063.039062 133.445312 C 1065.277344 132.839844 1072.394531 129.21875 1082.785156 124.710938 C 1087.9375 122.417969 1094.046875 120.070312 1100.578125 117.5625 C 1107.105469 115.050781 1114.488281 112.636719 1121.894531 110.078125 C 1151.347656 99.964844 1181.777344 90 1186.503906 87.789062 L 1172.507812 88.546875 C 1193.078125 81.386719 1208.753906 77.074219 1223.367188 72.566406 C 1239.171875 68.011719 1254.554688 62.324219 1269.519531 55.503906 L 1267.78125 56.933594 C 1270.585938 56.328125 1271.992188 54.039062 1280.277344 49.929688 C 1282.347656 48.90625 1284.867188 47.804688 1287.925781 46.675781 L 1299.042969 42.496094 C 1303.324219 40.902344 1308.335938 39.15625 1314.160156 37.308594 C 1319.988281 35.457031 1326.511719 32.890625 1334.144531 30.347656 L 1334.304688 30.652344 C 1336.066406 29.242188 1338.023438 28.191406 1340.171875 27.496094 C 1336.671875 28.792969 1333.066406 29.785156 1329.523438 30.914062 C 1335.003906 27.324219 1339.128906 22.902344 1346.570312 18.382812 C 1348.382812 17.800781 1349.386719 18.058594 1349.722656 18.46875 L 1354.304688 15.664062 L 1358.761719 12.585938 L 1367.644531 6.429688 C 1369.90625 5.824219 1372.175781 5.246094 1374.433594 4.585938 C 1379.097656 -0.433594 1373.859375 -2.332031 1389.527344 -10.957031 C 1385.855469 -10.21875 1387.324219 -11.859375 1389.375 -13.785156 C 1391.425781 -15.714844 1393.679688 -18.078125 1392.324219 -17.976562 C 1393.246094 -18.253906 1395.097656 -19.148438 1396.734375 -19.804688 C 1404.496094 -26.777344 1417.359375 -42.085938 1419.46875 -46.601562 Z M 1419.46875 -46.601562 " fill-opacity="1" fill-rule="nonzero"/></g></g></g><g clip-path="url(#5ed50cdd75)"><g clip-path="url(#ea70d14de5)"><g clip-path="url(#ad169cf3b9)"><path fill="#6daee9" d="M 997.867188 131.335938 L 998.453125 129.546875 C 998.183594 130.117188 997.988281 130.714844 997.867188 131.335938 Z M 997.867188 131.335938 " fill-opacity="1" fill-rule="nonzero"/></g></g></g><g clip-path="url(#25407dd076)"><g clip-path="url(#bc0db44b5f)"><g clip-path="url(#e0e76050b6)"><path fill="#6daee9" d="M 1349.605469 18.390625 L 1349.191406 18.636719 C 1349.8125 19.625 1350.199219 18.894531 1349.605469 18.390625 Z M 1349.605469 18.390625 " fill-opacity="1" fill-rule="nonzero"/></g></g></g><g clip-path="url(#216bb97171)"><g clip-path="url(#e048c02ca3)"><g clip-path="url(#63c8f23f42)"><path fill="#6daee9" d="M 1109.308594 74.191406 L 1110.0625 73.980469 L 1106.792969 73.304688 Z M 1109.308594 74.191406 " fill-opacity="1" fill-rule="nonzero"/></g></g></g><g clip-path="url(#576b0db672)"><g clip-path="url(#fcc95c740b)"><g clip-path="url(#70a3a987c6)"><path fill="#6daee9" d="M 1250.132812 28.015625 C 1252.128906 27.410156 1254.019531 26.570312 1255.808594 25.496094 C 1249.253906 27.527344 1249.046875 27.90625 1250.132812 28.015625 Z M 1250.132812 28.015625 " fill-opacity="1" fill-rule="nonzero"/></g></g></g></svg>